<mxfile host="app.diagrams.net" modified="2024-05-20T15:40:29.574Z" agent="Mozilla/5.0 (Windows NT 10.0; Win64; x64; rv:126.0) Gecko/20100101 Firefox/126.0" etag="-dL1ZH_eCHmMyxLdt5-P" version="24.4.4" type="device">
  <diagram name="Side-1" id="3bw63TAxrlZqtCcXwvEx">
    <mxGraphModel dx="988" dy="512" grid="1" gridSize="10" guides="1" tooltips="1" connect="1" arrows="1" fold="1" page="1" pageScale="1" pageWidth="630" pageHeight="180" math="0" shadow="0">
      <root>
        <mxCell id="0" />
        <mxCell id="1" parent="0" />
        <mxCell id="NuXdnhrrO7ZAyxAfzGwZ-15" value="" style="shape=trapezoid;perimeter=trapezoidPerimeter;whiteSpace=wrap;html=1;fixedSize=1;fillColor=none;" vertex="1" parent="1">
          <mxGeometry x="560" y="60" width="50" height="60" as="geometry" />
        </mxCell>
        <mxCell id="NuXdnhrrO7ZAyxAfzGwZ-1" value="&lt;div&gt;VNA&lt;/div&gt;&lt;div&gt;&lt;br&gt;&lt;/div&gt;" style="whiteSpace=wrap;html=1;aspect=fixed;fontFamily=Times New Roman;" vertex="1" parent="1">
          <mxGeometry x="140" y="60" width="80" height="80" as="geometry" />
        </mxCell>
        <mxCell id="NuXdnhrrO7ZAyxAfzGwZ-22" style="edgeStyle=orthogonalEdgeStyle;rounded=0;orthogonalLoop=1;jettySize=auto;html=1;exitX=1;exitY=0.25;exitDx=0;exitDy=0;entryX=0;entryY=0.25;entryDx=0;entryDy=0;endArrow=none;endFill=0;" edge="1" parent="1" source="NuXdnhrrO7ZAyxAfzGwZ-2" target="NuXdnhrrO7ZAyxAfzGwZ-1">
          <mxGeometry relative="1" as="geometry" />
        </mxCell>
        <mxCell id="NuXdnhrrO7ZAyxAfzGwZ-23" style="edgeStyle=orthogonalEdgeStyle;rounded=0;orthogonalLoop=1;jettySize=auto;html=1;exitX=0.75;exitY=1;exitDx=0;exitDy=0;entryX=0;entryY=1;entryDx=0;entryDy=0;endArrow=none;endFill=0;" edge="1" parent="1" source="NuXdnhrrO7ZAyxAfzGwZ-2" target="NuXdnhrrO7ZAyxAfzGwZ-3">
          <mxGeometry relative="1" as="geometry">
            <Array as="points">
              <mxPoint x="80" y="150" />
              <mxPoint x="260" y="150" />
            </Array>
          </mxGeometry>
        </mxCell>
        <mxCell id="NuXdnhrrO7ZAyxAfzGwZ-2" value="&lt;div&gt;Computer&lt;/div&gt;&lt;div&gt;&lt;br&gt;&lt;/div&gt;" style="whiteSpace=wrap;html=1;aspect=fixed;fontFamily=Times New Roman;" vertex="1" parent="1">
          <mxGeometry x="20" y="60" width="80" height="80" as="geometry" />
        </mxCell>
        <mxCell id="NuXdnhrrO7ZAyxAfzGwZ-3" value="&lt;div&gt;&lt;br&gt;&lt;/div&gt;&lt;div&gt;&lt;br&gt;&lt;/div&gt;&lt;div&gt;Turntable&lt;br&gt;&lt;/div&gt;" style="rounded=0;whiteSpace=wrap;html=1;fontFamily=Times New Roman;" vertex="1" parent="1">
          <mxGeometry x="260" y="100" width="120" height="60" as="geometry" />
        </mxCell>
        <mxCell id="NuXdnhrrO7ZAyxAfzGwZ-5" value="" style="ellipse;whiteSpace=wrap;html=1;" vertex="1" parent="1">
          <mxGeometry x="270" y="110" width="100" height="20" as="geometry" />
        </mxCell>
        <mxCell id="NuXdnhrrO7ZAyxAfzGwZ-8" value="" style="triangle;whiteSpace=wrap;html=1;fillColor=#D6C451;" vertex="1" parent="1">
          <mxGeometry x="520" y="40" width="60" height="50" as="geometry" />
        </mxCell>
        <mxCell id="NuXdnhrrO7ZAyxAfzGwZ-9" value="" style="rounded=0;whiteSpace=wrap;html=1;fillColor=#D6C451;" vertex="1" parent="1">
          <mxGeometry x="560" y="55" width="50" height="20" as="geometry" />
        </mxCell>
        <mxCell id="NuXdnhrrO7ZAyxAfzGwZ-12" value="" style="shape=trapezoid;perimeter=trapezoidPerimeter;whiteSpace=wrap;html=1;fixedSize=1;fillColor=none;" vertex="1" parent="1">
          <mxGeometry x="300" y="60" width="50" height="60" as="geometry" />
        </mxCell>
        <mxCell id="NuXdnhrrO7ZAyxAfzGwZ-13" value="" style="triangle;whiteSpace=wrap;html=1;fillColor=#D6C451;direction=west;" vertex="1" parent="1">
          <mxGeometry x="330" y="40" width="60" height="50" as="geometry" />
        </mxCell>
        <mxCell id="NuXdnhrrO7ZAyxAfzGwZ-14" value="" style="rounded=0;whiteSpace=wrap;html=1;fillColor=#D6C451;" vertex="1" parent="1">
          <mxGeometry x="300" y="55" width="50" height="20" as="geometry" />
        </mxCell>
        <mxCell id="NuXdnhrrO7ZAyxAfzGwZ-17" value="" style="rounded=0;whiteSpace=wrap;html=1;fillColor=none;" vertex="1" parent="1">
          <mxGeometry x="30" y="70" width="60" height="40" as="geometry" />
        </mxCell>
        <mxCell id="NuXdnhrrO7ZAyxAfzGwZ-18" value="" style="rounded=0;whiteSpace=wrap;html=1;fillColor=none;" vertex="1" parent="1">
          <mxGeometry x="150" y="70" width="60" height="40" as="geometry" />
        </mxCell>
        <mxCell id="NuXdnhrrO7ZAyxAfzGwZ-19" value="" style="ellipse;whiteSpace=wrap;html=1;aspect=fixed;" vertex="1" parent="1">
          <mxGeometry x="150" y="120" width="10" height="10" as="geometry" />
        </mxCell>
        <mxCell id="NuXdnhrrO7ZAyxAfzGwZ-20" value="" style="ellipse;whiteSpace=wrap;html=1;aspect=fixed;" vertex="1" parent="1">
          <mxGeometry x="180" y="120" width="10" height="10" as="geometry" />
        </mxCell>
        <mxCell id="NuXdnhrrO7ZAyxAfzGwZ-21" value="" style="curved=1;endArrow=classic;html=1;rounded=0;entryX=0.5;entryY=0;entryDx=0;entryDy=0;endFill=1;exitX=1;exitY=0.5;exitDx=0;exitDy=0;" edge="1" parent="1" source="NuXdnhrrO7ZAyxAfzGwZ-20" target="NuXdnhrrO7ZAyxAfzGwZ-9">
          <mxGeometry width="50" height="50" relative="1" as="geometry">
            <mxPoint x="280" y="250" as="sourcePoint" />
            <mxPoint x="650" y="30" as="targetPoint" />
            <Array as="points">
              <mxPoint x="230" y="120" />
              <mxPoint x="260" y="30" />
              <mxPoint x="430" y="20" />
              <mxPoint x="570" y="20" />
            </Array>
          </mxGeometry>
        </mxCell>
        <mxCell id="NuXdnhrrO7ZAyxAfzGwZ-24" value="" style="curved=1;endArrow=none;html=1;rounded=0;exitX=1;exitY=1;exitDx=0;exitDy=0;entryX=0.5;entryY=0;entryDx=0;entryDy=0;endFill=0;startArrow=classic;startFill=1;" edge="1" parent="1" source="NuXdnhrrO7ZAyxAfzGwZ-19" target="NuXdnhrrO7ZAyxAfzGwZ-14">
          <mxGeometry width="50" height="50" relative="1" as="geometry">
            <mxPoint x="160" y="150" as="sourcePoint" />
            <mxPoint x="320" y="50" as="targetPoint" />
            <Array as="points">
              <mxPoint x="180" y="140" />
              <mxPoint x="240" y="130" />
              <mxPoint x="270" y="50" />
              <mxPoint x="320" y="40" />
            </Array>
          </mxGeometry>
        </mxCell>
      </root>
    </mxGraphModel>
  </diagram>
</mxfile>
